<?xml version="1.0" encoding="UTF-8"?> <svg xmlns="http://www.w3.org/2000/svg" xmlns:xlink="http://www.w3.org/1999/xlink" xmlns:xodm="http://www.corel.com/coreldraw/odm/2003" xml:space="preserve" width="2500px" height="900px" version="1.1" style="shape-rendering:geometricPrecision; text-rendering:geometricPrecision; image-rendering:optimizeQuality; fill-rule:evenodd; clip-rule:evenodd" viewBox="0 0 2500 900"> <defs> <style type="text/css"> .fil1 {fill:black;fill-rule:nonzero} .fil2 {fill:#020202;fill-rule:nonzero} .fil0 {fill:#5C1C4F;fill-rule:nonzero} </style> </defs> <g id="Capa_x0020_1"> <metadata id="CorelCorpID_0Corel-Layer"></metadata> <path class="fil0" d="M665.26 318.07l-186.42 0c-12.66,0 -21.92,3.38 -27.78,10.17 -5.89,6.78 -8.83,14.69 -8.83,23.72l0 70.5 189.82 6.11 0 92.86 -189.82 6.1 0 185.06 -117.26 0 0 -382.32c0,-23.5 3.73,-43.15 11.18,-58.97 7.46,-15.82 16.95,-28.14 28.48,-36.95 11.52,-8.81 24.5,-15.14 38.98,-18.98 14.45,-3.83 28.46,-5.76 42.02,-5.76 14.91,0 34.67,0.23 59.32,0.68 24.61,0.45 51.06,1.35 79.31,2.71 28.23,1.35 55.24,3.62 81,6.78l0 98.29zm277.13 87.28l-187.77 -325.07c-15.86,-27.6 -45.4,-44.63 -77.3,-44.63l-375.32 0c-31.92,0 -61.36,17.03 -77.29,44.63l-187.79 325.07c-15.89,27.64 -15.89,61.67 0,89.29l187.79 325.08c15.93,27.66 45.37,44.63 77.29,44.63l375.32 0c31.9,0 61.44,-16.97 77.3,-44.63l187.77 -325.08c15.94,-27.62 15.94,-61.65 0,-89.29z"></path> <path class="fil1" d="M1073.65 475.49l0 -222.51c0,-13.68 2.17,-25.11 6.51,-34.32 4.35,-9.21 9.87,-16.39 16.56,-21.5 6.71,-5.14 14.28,-8.82 22.7,-11.06 8.41,-2.23 16.56,-3.35 24.45,-3.35 8.68,0 20.19,0.13 34.53,0.4 14.33,0.26 29.72,0.78 46.16,1.57 16.43,0.79 32.15,2.11 47.15,3.95l0 57.2 -108.49 0c-7.38,0 -12.77,1.98 -16.19,5.93 -3.42,3.94 -5.13,8.54 -5.13,13.81l0 41.02 110.47 3.55 0 54.05 -110.47 3.55 0 107.71 -68.25 0z"></path> <path class="fil1" d="M1378.62 475.49c-16.57,0 -30.25,-2.49 -41.03,-7.49 -10.79,-5.01 -18.81,-12.9 -24.07,-23.68 -5.26,-10.78 -7.89,-24.72 -7.89,-41.81l0 -219.76 68.26 0 0 208.31c0,5.52 0.84,9.99 2.57,13.41 1.69,3.42 4.32,5.93 7.88,7.5 3.55,1.58 7.69,2.37 12.42,2.37l88.77 0 0 61.15 -106.91 0z"></path> <path class="fil1" d="M1630.72 416.71c10.78,0 19.73,-1.25 26.83,-3.76 7.1,-2.49 12.68,-6.83 16.77,-13.01 4.08,-6.18 6.96,-14.99 8.68,-26.43 1.7,-11.45 2.56,-26.24 2.56,-44.38 0,-18.68 -0.86,-33.8 -2.56,-45.38 -1.72,-11.57 -4.6,-20.45 -8.68,-26.63 -4.09,-6.18 -9.67,-10.39 -16.77,-12.63 -7.1,-2.23 -16.05,-3.35 -26.83,-3.35 -10.52,0 -19.32,1.12 -26.42,3.35 -7.1,2.24 -12.7,6.45 -16.77,12.63 -4.09,6.18 -7.05,15.06 -8.88,26.63 -1.85,11.58 -2.77,26.7 -2.77,45.38 0,18.14 0.85,32.93 2.57,44.38 1.71,11.44 4.6,20.25 8.68,26.43 4.08,6.18 9.67,10.52 16.76,13.01 7.1,2.51 16.05,3.76 26.83,3.76zm0 61.15c-20.26,0 -38.07,-1.98 -53.45,-5.93 -15.39,-3.94 -28.27,-11.16 -38.67,-21.69 -10.39,-10.52 -18.14,-25.51 -23.28,-44.97 -5.13,-19.46 -7.69,-44.85 -7.69,-76.14 0,-31.04 2.63,-56.36 7.89,-75.96 5.26,-19.59 13.02,-34.64 23.28,-45.17 10.25,-10.51 23.08,-17.82 38.47,-21.89 15.38,-4.08 33.19,-6.12 53.45,-6.12 20.52,0 38.46,2.04 53.86,6.12 15.39,4.07 28.2,11.38 38.47,21.89 10.25,10.53 17.94,25.58 23.07,45.17 5.13,19.6 7.7,44.92 7.7,75.96 0,31.29 -2.57,56.68 -7.7,76.14 -5.13,19.46 -12.88,34.45 -23.27,44.97 -10.4,10.53 -23.22,17.75 -38.47,21.69 -15.27,3.95 -33.14,5.93 -53.66,5.93z"></path> <path class="fil1" d="M1861.12 316.89l42.62 0c4.72,0 8.93,-0.59 12.61,-1.78 3.69,-1.18 6.84,-3.28 9.48,-6.31 2.62,-3.02 4.6,-6.91 5.92,-11.64 1.32,-4.73 1.97,-10.65 1.97,-17.75 0,-7.1 -0.65,-12.96 -1.97,-17.55 -1.32,-4.61 -3.3,-8.15 -5.92,-10.66 -2.64,-2.49 -5.79,-4.34 -9.48,-5.53 -3.68,-1.17 -7.89,-1.77 -12.61,-1.77l-42.62 0 0 72.99zm-68.25 158.6l0 -292.74 123.09 0c12.36,0 23.74,1.52 34.13,4.53 10.38,3.03 19.46,8.17 27.23,15.39 7.75,7.24 13.79,17.03 18.15,29.39 4.33,12.37 6.5,28.02 6.5,46.95 0,12.89 -1.18,23.87 -3.55,32.95 -2.37,9.08 -5.52,16.71 -9.47,22.88 -3.94,6.18 -8.48,11.24 -13.6,15.18 -5.14,3.95 -10.46,7.37 -15.99,10.26l52.47 115.21 -69.43 0 -43.79 -104.15c-2.64,0 -5.59,-0.07 -8.88,-0.2 -3.29,-0.13 -6.51,-0.2 -9.66,-0.2l-9.67 0 -9.28 0 0 104.55 -68.25 0z"></path> <path class="fil1" d="M2117.57 477.86c-6.32,0 -13.75,-0.67 -22.3,-1.98 -8.56,-1.31 -16.77,-4.13 -24.65,-8.48 -7.89,-4.34 -14.48,-11.05 -19.73,-20.12 -5.27,-9.07 -7.9,-21.36 -7.9,-36.88l0 -157.43c0,-13.67 2.18,-25.11 6.51,-34.32 4.35,-9.2 9.88,-16.37 16.57,-21.5 6.71,-5.13 14.28,-8.8 22.69,-11.05 8.42,-2.23 16.57,-3.36 24.46,-3.36 21.04,0 39.32,0.35 54.84,0.99 15.52,0.67 29.2,1.39 41.03,2.18 11.84,0.78 22.49,1.58 31.96,2.36l0 57.6 -107.31 0c-7.1,0 -12.62,1.65 -16.58,4.94 -3.94,3.29 -5.91,8.48 -5.91,15.58l0 32.35 110.47 3.95 0 53.65 -110.47 3.55 0 30.77c0,5.79 0.91,10.33 2.76,13.62 1.84,3.29 4.34,5.71 7.49,7.3 3.17,1.57 6.58,2.36 10.26,2.36l109.29 0 0 57.2c-11.57,1.33 -24.46,2.52 -38.67,3.56 -14.2,1.05 -28.6,1.78 -43.19,2.17 -14.6,0.4 -28.48,0.72 -41.62,0.99z"></path> <path class="fil1" d="M2370.45 477.86c-8.15,0 -16.37,-0.27 -24.65,-0.79 -8.29,-0.53 -16.44,-1.26 -24.47,-2.17 -8.02,-0.92 -15.77,-2.04 -23.27,-3.35 -7.49,-1.32 -14.4,-2.77 -20.72,-4.35l0 -54.05c8.41,0.79 17.76,1.45 28.02,1.98 10.26,0.53 20.71,0.92 31.36,1.18 10.66,0.26 20.71,0.4 30.18,0.4 9.21,0 17.03,-0.73 23.48,-2.18 6.45,-1.44 11.37,-3.94 14.79,-7.49 3.42,-3.56 5.12,-8.48 5.12,-14.8l0 -7.49c0,-7.1 -2.29,-12.49 -6.89,-16.18 -4.62,-3.68 -10.46,-5.52 -17.56,-5.52l-22.88 0c-29.47,0 -51.82,-6.45 -67.08,-19.33 -15.25,-12.89 -22.87,-34.59 -22.87,-65.1l0 -13.81c0,-28.66 8.41,-49.91 25.25,-63.72 16.82,-13.8 41.02,-20.71 72.59,-20.71 11.57,0 22.75,0.6 33.53,1.78 10.78,1.18 21.04,2.56 30.78,4.14 9.72,1.58 18.27,3.3 25.64,5.13l0 53.65c-12.1,-0.78 -25.64,-1.57 -40.63,-2.36 -15,-0.79 -28.67,-1.19 -41.04,-1.19 -8.15,0 -15.38,0.73 -21.7,2.18 -6.31,1.44 -11.17,4.07 -14.59,7.89 -3.42,3.81 -5.13,9.41 -5.13,16.77l0 5.52c0,8.42 2.43,14.6 7.29,18.54 4.87,3.95 12.3,5.91 22.29,5.91l27.23 0c18.14,0 33.14,3.36 44.97,10.07 11.85,6.7 20.72,15.91 26.63,27.62 5.92,11.69 8.88,24.92 8.88,39.64l0 14.61c0,24.19 -4.27,42.6 -12.82,55.22 -8.55,12.63 -20.64,21.18 -36.29,25.64 -15.66,4.47 -34.13,6.72 -55.44,6.72z"></path> <path class="fil2" d="M2205.74 537.87c-0.65,-0.81 -1.63,-1.22 -2.92,-1.22l-18.06 0c-2.92,0 -4.39,1.47 -4.39,4.39l0.01 20.5c0,2.76 1.47,4.15 4.39,4.15l18.06 -0.01c2.6,-0.01 3.89,-1.39 3.89,-4.16l-0.01 -20.48c0,-1.31 -0.32,-2.36 -0.97,-3.17z"></path> <path class="fil2" d="M1117.94 696.15c-3.41,0 -6.58,-0.49 -9.51,-1.46 -2.93,-0.97 -5.28,-2.89 -7.09,-5.73 -1.79,-2.84 -2.67,-6.86 -2.67,-12.08l-0.06 -138.05 -24.64 0.02 0.05 141.71c0.01,9.43 1.56,16.95 4.66,22.56 3.08,5.61 7.52,9.59 13.28,11.94 5.79,2.37 12.49,3.53 20.15,3.53l68.04 -0.02 -0.01 -22.45 -62.2 0.03z"></path> <path class="fil2" d="M1275.64 693.77c-1.87,0.73 -4.24,1.58 -7.08,2.56 -2.83,0.98 -5.93,1.92 -9.26,2.81 -3.34,0.9 -6.67,1.67 -10.01,2.32 -3.33,0.65 -6.22,0.9 -8.65,0.74 -3.26,0 -6.39,-0.57 -9.39,-1.7 -3.02,-1.14 -5.5,-3.13 -7.44,-5.98 -1.95,-2.85 -2.94,-6.62 -2.94,-11.35l0 -5.85c-0.01,-6.01 1.83,-10.89 5.48,-14.63 3.66,-3.75 9.72,-5.87 18.17,-6.35l34.15 -1.48 0.02 37.57c-0.17,0.16 -1.19,0.6 -3.05,1.34zm22.27 -90.51c-3.57,-6.1 -9,-10.49 -16.21,-13.16 -7.25,-2.69 -16.24,-4.02 -26.97,-4.02 -10.57,0.17 -19.79,0.74 -27.68,1.72 -7.89,0.99 -14.75,2.13 -20.61,3.43l0 14.39 40.01 -0.02c8.95,0 15.69,0.89 20.25,2.68 4.55,1.78 7.68,4.42 9.4,7.91 1.69,3.51 2.55,7.78 2.56,12.82l0 13.66 -40.73 0.02c-13.99,0 -24.44,3.21 -31.33,9.64 -6.93,6.43 -10.37,14.68 -10.37,24.77l0 10.24c0.01,10.24 3.15,18.25 9.4,24.02 6.27,5.77 14.2,8.65 23.79,8.65 5.69,0 11.34,-0.66 16.95,-1.96 5.61,-1.3 10.81,-2.94 15.61,-4.89 4.8,-1.95 8.74,-3.78 11.84,-5.49 3.08,-1.71 5.11,-2.89 6.09,-3.53l4.15 14.39 19.27 -0.01 -0.03 -90.99c-0.01,-10.08 -1.81,-18.17 -5.39,-24.27z"></path> <path class="fil2" d="M1420.27 679.8c-2.36,6.92 -5.69,11.96 -9.99,15.13 -4.32,3.17 -9.64,4.76 -15.98,4.76 -6.83,0 -13.02,-0.97 -18.55,-2.91 -5.52,-1.96 -10.47,-4.07 -14.86,-6.34l-0.04 -74.4c5.2,-2.77 10.44,-5.09 15.73,-6.95 5.28,-1.88 11.18,-2.81 17.68,-2.82 5.69,0 10.73,1.14 15.12,3.41 4.39,2.27 7.89,6.74 10.5,13.41 2.6,6.66 3.92,16.67 3.92,30 0.01,10.89 -1.18,19.8 -3.53,26.71zm7.65 -86.83c-6.83,-4.48 -15.62,-6.71 -26.35,-6.7 -6.34,0 -13.21,1.31 -20.61,3.91 -7.4,2.6 -14.1,5.53 -20.12,8.79l-0.03 -66.59 -24.39 0.01 0.08 186.11 20 -0.01 4.39 -12.92c3.42,2.27 7.2,4.5 11.33,6.69 4.15,2.19 8.79,4.02 13.91,5.49 5.14,1.46 10.7,2.19 16.72,2.18 10.73,0 19.43,-2.57 26.09,-7.69 6.67,-5.13 11.54,-12.61 14.64,-22.45 3.07,-9.84 4.61,-21.67 4.6,-35.49 -0.01,-16.58 -1.68,-29.84 -5.01,-39.76 -3.34,-9.91 -8.43,-17.11 -15.25,-21.57z"></path> <path class="fil2" d="M1562.11 677.91c-1.47,6.35 -3.58,11.1 -6.34,14.27 -2.77,3.17 -6.21,5.25 -10.36,6.22 -4.15,0.98 -8.91,1.48 -14.27,1.48 -5.52,0 -10.36,-0.49 -14.51,-1.46 -4.15,-0.97 -7.57,-3.05 -10.25,-6.22 -2.69,-3.17 -4.72,-7.93 -6.11,-14.27 -1.38,-6.34 -2.08,-14.71 -2.08,-25.11 0,-10.41 0.68,-18.75 2.07,-25.01 1.37,-6.26 3.41,-10.93 6.08,-14.03 2.69,-3.08 6.1,-5.16 10.25,-6.22 4.14,-1.06 8.98,-1.59 14.51,-1.59 5.37,0 10.12,0.52 14.27,1.58 4.14,1.06 7.6,3.12 10.37,6.21 2.77,3.09 4.88,7.76 6.35,14.02 1.46,6.26 2.2,14.6 2.21,25 0,10.41 -0.73,18.78 -2.19,25.13zm12.65 -78.55c-4.73,-4.87 -10.74,-8.29 -18.05,-10.23 -7.32,-1.95 -15.86,-2.92 -25.62,-2.92 -9.76,0 -18.28,0.94 -25.61,2.81 -7.32,1.88 -13.33,5.25 -18.04,10.13 -4.72,4.89 -8.21,11.67 -10.49,20.37 -2.26,8.71 -3.39,19.89 -3.39,33.54 0.01,13.18 1.15,24.08 3.43,32.7 2.27,8.61 5.77,15.4 10.49,20.36 4.71,4.95 10.69,8.49 17.94,10.6 7.23,2.11 15.81,3.16 25.74,3.16 9.91,-0.01 18.52,-1.03 25.85,-3.06 7.31,-2.04 13.29,-5.5 17.93,-10.38 4.61,-4.87 8.07,-11.67 10.35,-20.37 2.27,-8.7 3.4,-19.71 3.4,-33.05 -0.01,-13.5 -1.15,-24.6 -3.43,-33.29 -2.29,-8.71 -5.78,-15.49 -10.5,-20.37z"></path> <path class="fil2" d="M1691.35 586.5c-1.96,-0.24 -3.99,-0.36 -6.11,-0.35 -9.1,0 -17.07,2.28 -23.9,6.84 -6.82,4.55 -13,10.16 -18.52,16.83l-5.62 -21.95 -18.79 0.01 0.06 130.5 24.39 -0.02 -0.03 -89.03c4.05,-3.9 8.07,-7.19 12.05,-9.88 4,-2.68 8.18,-4.68 12.57,-5.99 4.39,-1.29 9.34,-1.95 14.88,-1.95 2.59,0 5.11,0.12 7.55,0.36 2.45,0.25 4.81,0.53 7.09,0.86l-0.02 -25.13c-1.79,-0.48 -3.65,-0.85 -5.6,-1.1z"></path> <path class="fil2" d="M1787.37 693.55c-1.87,0.73 -4.23,1.58 -7.07,2.56 -2.84,0.97 -5.93,1.92 -9.27,2.81 -3.33,0.89 -6.67,1.67 -10,2.32 -3.33,0.65 -6.22,0.9 -8.65,0.74 -3.26,0 -6.39,-0.57 -9.39,-1.7 -3.02,-1.14 -5.5,-3.14 -7.45,-5.98 -1.94,-2.84 -2.94,-6.63 -2.94,-11.35l0 -5.85c0,-6 1.84,-10.89 5.49,-14.63 3.66,-3.75 9.71,-5.86 18.17,-6.35l34.15 -1.48 0.02 37.57c-0.17,0.15 -1.19,0.6 -3.06,1.34zm22.28 -90.51c-3.58,-6.1 -9,-10.49 -16.22,-13.16 -7.24,-2.69 -16.23,-4.02 -26.96,-4.02 -10.57,0.17 -19.79,0.74 -27.68,1.72 -7.89,0.98 -14.75,2.13 -20.62,3.43l0.01 14.39 40.01 -0.02c8.94,0 15.69,0.89 20.25,2.68 4.55,1.78 7.68,4.42 9.4,7.91 1.69,3.51 2.55,7.77 2.57,12.81l0 13.66 -40.75 0.02c-13.98,0 -24.43,3.22 -31.32,9.65 -6.92,6.42 -10.37,14.69 -10.37,24.76l0 10.25c0,10.24 3.15,18.25 9.4,24.02 6.26,5.77 14.19,8.66 23.8,8.65 5.68,0 11.33,-0.66 16.94,-1.96 5.61,-1.3 10.81,-2.94 15.6,-4.88 4.81,-1.96 8.75,-3.79 11.85,-5.5 3.08,-1.71 5.11,-2.89 6.09,-3.54l4.15 14.39 19.27 0 -0.03 -90.99c-0.01,-10.08 -1.81,-18.18 -5.39,-24.27z"></path> <path class="fil2" d="M1914.77 587.75l-35.36 0.02 -0.02 -36.59 -19.28 0.01 -3.63 36.59 -21.22 4.15 0.01 15.86 20.72 -0.01 -0.94 67.07c-0.17,10.58 1.1,19.03 3.79,25.37 2.68,6.34 6.91,10.94 12.69,13.77 5.77,2.85 13.06,4.28 21.84,4.27l19.75 -0.01 -0.01 -18.05 -16.1 -1.46c-1.95,-0.16 -3.98,-0.61 -6.09,-1.34 -2.12,-0.73 -4.06,-1.91 -5.87,-3.53 -1.78,-1.62 -3.16,-3.99 -4.14,-7.08 -0.97,-3.08 -1.47,-7.14 -1.48,-12.19l-0.01 -66.83 35.35 -0.02 0 -20z"></path> <path class="fil2" d="M2023.61 677.71c-1.48,6.35 -3.58,11.1 -6.34,14.27 -2.78,3.17 -6.22,5.25 -10.37,6.23 -4.15,0.98 -8.91,1.47 -14.27,1.47 -5.53,0 -10.36,-0.48 -14.51,-1.46 -4.15,-0.98 -7.57,-3.04 -10.24,-6.22 -2.7,-3.17 -4.73,-7.93 -6.12,-14.26 -1.38,-6.34 -2.07,-14.72 -2.07,-25.12 -0.01,-10.41 0.67,-18.75 2.05,-25.01 1.38,-6.26 3.42,-10.94 6.1,-14.02 2.68,-3.09 6.1,-5.17 10.24,-6.22 4.15,-1.07 8.99,-1.6 14.51,-1.6 5.38,0 10.13,0.53 14.27,1.58 4.15,1.06 7.6,3.13 10.37,6.21 2.77,3.1 4.88,7.77 6.35,14.02 1.46,6.27 2.2,14.6 2.21,25 0,10.42 -0.73,18.79 -2.18,25.13zm12.65 -78.55c-4.73,-4.87 -10.74,-8.29 -18.07,-10.24 -7.31,-1.94 -15.84,-2.91 -25.6,-2.91 -9.77,0.01 -18.3,0.95 -25.62,2.82 -7.31,1.87 -13.33,5.25 -18.04,10.13 -4.72,4.88 -8.21,11.67 -10.48,20.37 -2.27,8.7 -3.4,19.88 -3.39,33.54 0,13.17 1.15,24.07 3.42,32.68 2.28,8.62 5.77,15.41 10.5,20.36 4.71,4.96 10.68,8.5 17.94,10.61 7.22,2.11 15.8,3.17 25.72,3.16 9.91,0 18.54,-1.03 25.86,-3.06 7.3,-2.04 13.28,-5.5 17.93,-10.37 4.62,-4.89 8.08,-11.67 10.35,-20.37 2.28,-8.71 3.41,-19.72 3.4,-33.06 -0.01,-13.5 -1.15,-24.59 -3.43,-33.29 -2.29,-8.7 -5.77,-15.5 -10.49,-20.37z"></path> <path class="fil2" d="M2152.84 586.31c-1.95,-0.25 -3.98,-0.37 -6.1,-0.37 -9.11,0.01 -17.07,2.29 -23.91,6.85 -6.83,4.55 -13,10.16 -18.52,16.83l-5.62 -21.95 -18.78 0.01 0.05 130.5 24.4 -0.02 -0.04 -89.02c4.06,-3.91 8.08,-7.2 12.06,-9.9 3.99,-2.67 8.18,-4.67 12.57,-5.98 4.39,-1.29 9.34,-1.94 14.87,-1.94 2.6,0 5.12,0.11 7.56,0.36 2.44,0.24 4.8,0.53 7.08,0.84l-0.01 -25.12c-1.79,-0.48 -3.66,-0.85 -5.61,-1.09z"></path> <polygon class="fil2" points="2181.37,587.64 2181.43,718.14 2205.83,718.13 2205.76,587.63 "></polygon> <path class="fil2" d="M2324.1 677.58c-1.46,6.35 -3.57,11.11 -6.33,14.27 -2.77,3.18 -6.22,5.25 -10.36,6.23 -4.15,0.98 -8.92,1.47 -14.28,1.47 -5.53,0 -10.37,-0.49 -14.51,-1.46 -4.15,-0.97 -7.56,-3.05 -10.25,-6.22 -2.68,-3.17 -4.72,-7.92 -6.1,-14.26 -1.39,-6.34 -2.08,-14.71 -2.08,-25.12 -0.01,-10.41 0.68,-18.74 2.05,-25.01 1.38,-6.26 3.41,-10.93 6.1,-14.02 2.67,-3.09 6.09,-5.16 10.24,-6.23 4.15,-1.06 8.99,-1.59 14.52,-1.59 5.36,0 10.11,0.52 14.26,1.58 4.15,1.06 7.6,3.13 10.37,6.21 2.77,3.1 4.88,7.77 6.35,14.02 1.47,6.27 2.21,14.6 2.21,25.01 0,10.41 -0.72,18.77 -2.19,25.12zm12.65 -78.55c-4.72,-4.87 -10.73,-8.28 -18.06,-10.23 -7.31,-1.95 -15.84,-2.92 -25.6,-2.92 -9.76,0 -18.3,0.94 -25.61,2.82 -7.32,1.88 -13.34,5.25 -18.05,10.13 -4.72,4.88 -8.2,11.68 -10.48,20.36 -2.28,8.71 -3.41,19.89 -3.4,33.55 0.01,13.17 1.15,24.07 3.42,32.69 2.28,8.62 5.78,15.4 10.51,20.36 4.71,4.95 10.68,8.49 17.93,10.6 7.23,2.11 15.81,3.16 25.73,3.16 9.91,-0.01 18.54,-1.02 25.87,-3.06 7.3,-2.04 13.27,-5.5 17.91,-10.38 4.63,-4.87 8.08,-11.67 10.35,-20.37 2.28,-8.7 3.41,-19.71 3.41,-33.04 0,-13.5 -1.15,-24.61 -3.43,-33.3 -2.28,-8.7 -5.78,-15.49 -10.5,-20.37z"></path> <path class="fil2" d="M2465.32 651.54c-6.35,-5.77 -15.7,-8.65 -28.06,-8.64l-19.51 0.01c-4.55,0 -8.49,-0.33 -11.83,-0.98 -3.33,-0.65 -5.89,-2.11 -7.69,-4.38 -1.78,-2.28 -2.67,-5.53 -2.67,-9.76l-0.01 -4.87c0,-6.84 1.89,-11.47 5.71,-13.92 3.83,-2.43 9.32,-3.65 16.47,-3.66l51.72 -0.02 -0.01 -14.64c-3.41,-0.81 -7.97,-1.53 -13.65,-2.18 -5.7,-0.65 -11.51,-1.18 -17.45,-1.58 -5.93,-0.41 -11.35,-0.61 -16.22,-0.61 -11.55,0.01 -20.82,1.35 -27.8,4.04 -6.99,2.68 -12.08,6.71 -15.24,12.08 -3.17,5.36 -4.76,12.2 -4.76,20.5l0.01 7.06c0,8.3 1.67,14.89 5.01,19.76 3.33,4.88 7.97,8.33 13.91,10.36 5.93,2.04 12.72,3.04 20.36,3.04l19.02 -0.01c7.48,0 12.86,1.38 16.11,4.14 3.26,2.77 4.88,6.58 4.89,11.46l0 5.37c0,4.72 -0.93,8.3 -2.8,10.74 -1.87,2.43 -4.52,4.02 -7.93,4.76 -3.42,0.73 -7.49,1.1 -12.19,1.1l-54.89 0.02 0.01 14.63c2.45,0.66 5.73,1.22 9.88,1.71 4.15,0.49 8.71,0.93 13.65,1.34 4.97,0.4 9.81,0.68 14.53,0.84 4.71,0.16 8.78,0.24 12.19,0.24 9.92,-0.01 18.49,-0.99 25.73,-2.93 7.23,-1.96 12.89,-5.38 16.96,-10.25 4.04,-4.89 6.08,-11.72 6.08,-20.5l-0.01 -10c0,-10.41 -3.18,-18.49 -9.52,-24.27z"></path> </g> </svg> 